<?xml version="1.0" standalone="no"?>
<!DOCTYPE svg PUBLIC "-//W3C//DTD SVG 20010904//EN"
 "http://www.w3.org/TR/2001/REC-SVG-20010904/DTD/svg10.dtd">
<svg version="1.0" xmlns="http://www.w3.org/2000/svg"
 width="342.000000pt" height="624.000000pt" viewBox="0 0 342.000000 624.000000"
 preserveAspectRatio="xMidYMid meet">

<g transform="translate(0.000000,624.000000) scale(0.100000,-0.100000)"
fill="#000000" stroke="none">
<path d="M1640 5719 c0 -10 40 -32 47 -25 3 2 2 9 -1 14 -8 13 -46 22 -46 11z"/>
<path d="M1491 5701 c-9 -6 -10 -11 -2 -15 13 -8 31 1 31 15 0 11 -11 11 -29
0z"/>
<path d="M1323 5687 c-19 -8 -33 -37 -19 -37 15 0 66 24 66 32 0 5 -4 7 -9 4
-5 -4 -11 -2 -13 3 -1 4 -13 4 -25 -2z"/>
<path d="M1598 5678 c4 -18 2 -20 -16 -16 -12 4 -25 2 -28 -3 -3 -5 -17 -6
-31 -3 -15 4 -28 2 -33 -6 -6 -9 -13 -9 -28 -1 -43 23 -127 -11 -203 -81 -16
-14 -29 -22 -29 -17 0 5 -7 9 -15 9 -8 0 -15 7 -15 15 0 8 -5 15 -11 15 -6 0
-9 -6 -6 -13 3 -7 -1 -23 -8 -36 -11 -21 -13 -22 -19 -5 -4 9 -2 21 4 24 8 5
7 9 -3 13 -8 3 -18 2 -23 -2 -5 -5 -29 -16 -54 -25 -26 -10 -50 -26 -56 -39
-5 -12 -15 -21 -22 -19 -19 3 -14 -15 6 -23 16 -6 16 -7 0 -19 -10 -7 -18 -21
-18 -31 0 -14 3 -15 15 -5 10 9 15 9 15 1 0 -6 -4 -11 -10 -11 -5 0 -10 -8
-11 -17 0 -13 -3 -11 -11 7 -11 25 -11 25 -17 3 -3 -12 -18 -31 -33 -43 -22
-17 -31 -19 -48 -10 -11 6 -20 19 -20 29 0 16 -28 38 -35 29 -18 -23 -20 -45
-4 -60 9 -9 20 -14 23 -10 3 3 6 1 6 -5 0 -18 -12 -22 -31 -10 -24 15 -33 4
-38 -45 -1 -5 -8 -8 -16 -8 -8 0 -19 -9 -25 -20 -6 -11 -15 -20 -21 -20 -6 0
-7 5 -4 10 3 6 1 10 -5 10 -7 0 -9 -8 -5 -20 5 -14 -2 -32 -20 -56 -14 -19
-24 -38 -20 -43 3 -5 1 -11 -4 -13 -7 -2 -23 -212 -24 -308 0 -38 32 -210 43
-230 6 -10 10 -26 10 -35 0 -9 14 -47 30 -85 16 -38 30 -73 30 -79 0 -19 -30
-12 -31 7 0 15 -1 15 -7 1 -5 -12 -19 -16 -54 -15 -41 1 -48 -2 -53 -22 -7
-28 11 -144 30 -185 l13 -32 1 31 c1 42 22 144 30 144 3 -1 20 -12 36 -25 l30
-25 -27 0 c-17 0 -31 -8 -38 -20 -16 -30 -25 -120 -12 -120 6 0 13 -14 17 -30
9 -40 31 -61 58 -55 29 7 68 -41 43 -51 -17 -6 -21 -41 -8 -60 4 -6 15 -13 25
-17 25 -9 19 -52 -7 -52 -11 0 -21 -5 -23 -12 -5 -15 36 -43 65 -43 23 0 24 2
17 53 -4 28 -12 57 -19 62 -7 6 -12 33 -12 64 1 41 -3 55 -16 62 -10 5 -26 13
-35 18 -27 12 -27 46 -1 81 18 25 23 44 22 88 -1 85 -15 215 -26 235 -6 12 -5
17 4 17 9 0 9 3 -2 10 -13 9 -13 12 1 23 12 9 16 33 18 91 2 48 9 92 18 110
11 22 13 34 5 47 -8 12 -7 20 1 29 10 10 8 12 -5 7 -19 -7 -24 9 -9 32 5 8 16
11 29 7 14 -5 24 -1 31 11 8 14 10 15 11 3 0 -13 1 -13 10 0 15 24 12 50 -7
50 -13 0 -14 3 -5 12 17 17 15 28 -5 28 -15 0 -16 2 -3 10 8 5 15 13 15 18 0
5 9 25 20 46 17 32 18 38 5 46 -12 7 -11 13 10 37 50 55 108 82 180 83 36 0
148 61 142 77 -2 4 21 13 50 20 29 6 55 12 58 13 3 1 8 2 11 2 4 -1 33 11 64
26 47 23 65 27 108 22 29 -3 65 -3 82 0 39 7 127 -3 245 -28 52 -11 120 -23
150 -27 73 -10 94 -19 128 -55 16 -16 38 -30 49 -30 12 0 21 -6 20 -12 -2 -58
2 -66 36 -64 26 1 33 -3 35 -22 2 -12 14 -30 28 -38 13 -9 24 -23 24 -31 0 -7
6 -13 13 -12 34 4 39 -1 33 -32 -5 -28 6 -66 24 -79 4 -3 10 -26 13 -52 6 -42
5 -47 -11 -41 -13 4 -13 2 3 -10 17 -13 18 -19 8 -35 -17 -28 -5 -35 19 -12
18 16 20 30 18 102 -1 46 -2 97 -1 113 2 118 -1 171 -12 189 -6 12 -13 34 -15
49 -4 31 -38 103 -54 113 -5 3 -13 17 -18 30 -5 13 -20 28 -34 33 -13 5 -26
21 -30 35 -7 27 -20 34 -31 16 -10 -16 -28 -11 -21 6 10 26 -29 68 -91 99 -32
15 -72 42 -89 58 -23 21 -38 27 -53 22 -12 -4 -21 -2 -21 4 0 6 -8 11 -17 11
-10 0 -27 7 -37 15 -25 19 -57 20 -50 1 4 -9 -3 -13 -20 -13 -14 0 -23 3 -20
8 3 5 -4 9 -15 9 -11 0 -24 8 -30 17 -12 23 -90 19 -108 -5 -7 -9 -13 -11 -13
-4 0 11 -50 42 -69 42 -5 0 -7 -10 -3 -22z m152 -32 c0 -9 -40 -13 -46 -5 -3
5 6 9 20 9 14 0 26 -2 26 -4z m-335 -36 c-3 -5 1 -10 9 -10 8 0 17 -4 20 -9
11 -18 -6 -41 -30 -41 -28 0 -32 16 -6 23 13 4 11 5 -5 6 -25 1 -26 2 -17 25
3 9 13 16 21 16 8 0 11 -4 8 -10z m335 0 c12 -8 9 -10 -13 -10 -16 0 -26 4
-22 10 8 12 16 12 35 0z m148 -23 c8 -10 2 -13 -29 -13 -44 -2 -49 3 -16 16
30 12 33 12 45 -3z m42 -58 c0 -6 -4 -7 -10 -4 -5 3 -10 11 -10 16 0 6 5 7 10
4 6 -3 10 -11 10 -16z m-814 -24 c10 -20 9 -27 -6 -40 -17 -15 -18 -14 -22 20
-6 51 9 62 28 20z m-60 -40 c0 -14 -5 -24 -9 -22 -5 1 -8 6 -8 10 1 4 1 14 1
22 0 8 4 15 9 15 5 0 8 -11 7 -25z m974 -17 c0 -19 -2 -20 -10 -8 -13 19 -13
30 0 30 6 0 10 -10 10 -22z m-900 -18 c0 -8 -25 -20 -41 -20 -5 0 -9 6 -9 14
0 8 10 14 25 14 14 0 25 -4 25 -8z m946 -15 c-3 -22 -19 -23 -22 -2 -1 9 4 17
11 17 7 0 12 -7 11 -15z m39 -35 c3 -5 1 -10 -4 -10 -6 0 -11 5 -11 10 0 6 2
10 4 10 3 0 8 -4 11 -10z m-1235 -64 c0 -3 -4 -8 -10 -11 -5 -3 -10 -1 -10 4
0 6 5 11 10 11 6 0 10 -2 10 -4z m-49 -449 c-16 -16 -26 0 -10 19 9 11 15 12
17 4 2 -6 -1 -17 -7 -23z"/>
<path d="M1400 5683 c0 -5 16 -9 35 -10 20 -1 33 3 30 8 -7 11 -65 12 -65 2z"/>
<path d="M1263 5635 c-15 -16 -16 -25 -5 -25 4 0 13 9 20 20 14 23 3 26 -15 5z"/>
<path d="M1215 5630 c-16 -7 -17 -9 -3 -9 9 -1 20 4 23 9 7 11 7 11 -20 0z"/>
<path d="M3095 5515 l-30 -15 43 5 c23 3 42 1 42 -4 0 -4 29 -11 64 -14 84 -8
206 2 206 17 0 7 -8 12 -17 12 -10 0 -76 3 -148 7 -103 5 -136 3 -160 -8z"/>
<path d="M916 5428 c-20 -28 -20 -44 -1 -52 16 -6 40 28 30 44 -3 6 2 10 12
10 15 0 16 2 3 10 -22 14 -27 13 -44 -12z"/>
<path d="M767 5309 c-4 -16 -3 -18 9 -8 16 13 19 29 5 29 -5 0 -11 -9 -14 -21z"/>
<path d="M1955 4739 c-192 -16 -229 -22 -274 -46 -25 -13 -56 -24 -69 -26 -17
-1 -28 -10 -35 -30 -7 -21 -14 -26 -26 -22 -9 4 -28 11 -42 15 -14 4 -36 13
-49 20 -12 7 -41 14 -64 16 -22 2 -55 6 -71 9 -62 10 -223 7 -246 -6 -41 -21
-89 -64 -110 -99 -27 -43 -47 -183 -30 -209 6 -10 31 -13 91 -12 54 1 79 -2
75 -9 -11 -18 65 -43 115 -38 53 5 127 38 110 48 -16 10 12 20 56 20 27 0 34
-4 34 -20 0 -22 15 -27 26 -9 4 8 9 7 15 -2 7 -11 13 -9 29 11 11 14 20 32 20
40 0 23 32 103 48 123 9 10 29 17 48 17 38 0 56 -21 73 -85 14 -51 35 -75 104
-119 30 -20 59 -46 63 -58 3 -12 15 -31 26 -42 29 -30 59 -101 52 -121 -5 -12
-13 -15 -28 -10 -87 26 -170 33 -181 15 -3 -5 -30 -10 -60 -10 -30 0 -57 -4
-60 -10 -3 -5 -27 -10 -52 -10 -25 0 -67 -8 -94 -17 -42 -15 -52 -16 -70 -5
-15 10 -24 11 -32 3 -8 -8 -2 -20 21 -44 43 -44 42 -71 -2 -84 -38 -12 -46 -9
-46 19 0 27 -26 33 -56 13 -36 -24 -43 -10 -11 23 30 31 35 69 12 79 -9 3 -24
-2 -34 -11 -10 -9 -26 -16 -36 -16 -10 0 -29 -10 -42 -22 -20 -18 -34 -21 -94
-20 -68 1 -70 0 -89 -30 -24 -39 -34 -149 -20 -213 6 -27 15 -68 19 -90 4 -22
15 -55 24 -74 9 -18 14 -37 11 -42 -3 -5 -1 -9 5 -9 6 0 18 -14 27 -31 19 -37
92 -119 106 -119 6 0 30 -18 55 -40 25 -22 52 -40 60 -40 8 0 27 -6 41 -14 15
-8 35 -17 45 -20 9 -3 23 -18 30 -33 6 -15 21 -35 31 -44 36 -30 0 -28 -45 2
-24 17 -79 48 -122 69 -43 22 -111 66 -152 100 -40 33 -78 60 -84 60 -12 0
-13 -5 -17 -141 -3 -118 -12 -207 -25 -237 -14 -34 24 -114 90 -193 31 -36 76
-90 101 -120 48 -58 367 -390 385 -400 20 -12 141 9 195 34 76 34 139 82 238
179 144 141 205 257 200 377 -3 71 -8 68 -33 -23 -9 -33 -20 -55 -25 -50 -9
10 -3 46 28 164 25 92 32 137 41 265 9 119 6 133 -20 109 -35 -32 -30 -7 9 42
22 27 53 75 71 106 33 60 101 254 101 287 0 24 -16 36 -24 19 -3 -7 -3 5 1 27
4 22 8 69 8 104 0 61 -1 65 -36 93 -30 24 -49 30 -117 37 -45 5 -88 14 -96 20
-8 7 -34 22 -59 34 -51 25 -131 96 -140 123 -3 11 -15 43 -26 72 l-21 52 30 0
c18 0 29 -5 27 -12 -1 -6 7 -14 18 -16 11 -2 34 -10 52 -18 32 -15 140 -19
159 -6 23 15 36 52 24 68 -14 16 -7 20 60 28 56 6 73 27 64 81 -6 36 -53 123
-54 100 -1 -6 -9 5 -18 24 -9 19 -24 37 -32 41 -84 41 -111 46 -205 39z m-825
-169 c0 -5 -7 -10 -15 -10 -8 0 -15 5 -15 10 0 6 7 10 15 10 8 0 15 -4 15 -10z
m898 -27 c-10 -2 -26 -2 -35 0 -10 3 -2 5 17 5 19 0 27 -2 18 -5z m141 -29 c2
-2 2 -7 -1 -10 -4 -3 -19 2 -35 11 l-28 16 30 -6 c16 -4 32 -9 34 -11z m-969
-34 c-14 -4 -32 -8 -40 -9 -13 -1 -13 0 0 9 8 5 26 9 40 9 l25 -1 -25 -8z
m719 -39 c-3 -6 -10 -7 -18 -2 -7 5 -10 14 -6 21 9 14 29 -2 24 -19z m-474
-21 c3 -5 1 -10 -4 -10 -6 0 -11 5 -11 10 0 6 2 10 4 10 3 0 8 -4 11 -10z
m-88 -16 c2 -6 -8 -14 -22 -16 -28 -6 -27 -6 -19 17 7 17 35 17 41 -1z m-177
-9 c14 -16 10 -18 -14 -9 -9 3 -16 10 -16 15 0 14 16 11 30 -6z m874 -15 c-7
-7 -19 -7 -35 -1 -23 9 -22 10 11 10 23 1 31 -2 24 -9z m-845 -36 c2 -2 -12
-4 -32 -4 -20 0 -37 4 -37 10 0 8 58 3 69 -6z m816 -254 c17 -19 17 -20 -1
-20 -23 0 -38 10 -41 28 -4 19 22 14 42 -8z m-85 -171 c9 -5 -6 -9 -42 -9 -45
0 -58 -3 -58 -15 0 -16 -64 -22 -74 -6 -3 4 -48 -4 -100 -19 -97 -28 -326 -49
-326 -29 0 5 8 9 18 9 10 0 22 3 25 6 22 22 126 47 232 55 66 5 149 13 185 17
67 8 114 5 140 -9z m-140 -141 c19 1 40 -4 47 -10 10 -8 13 -6 13 6 0 9 4 16
9 16 6 0 8 -10 6 -21 -4 -20 -3 -20 14 -5 16 15 20 15 49 1 28 -15 33 -15 57
1 14 9 25 12 25 6 0 -6 -4 -14 -10 -17 -5 -3 -10 -17 -10 -31 0 -14 -7 -27
-15 -30 -8 -4 -15 -11 -15 -18 0 -29 -64 -85 -137 -121 -59 -29 -94 -40 -143
-43 -71 -5 -217 14 -264 34 -42 17 -120 91 -145 137 -26 46 -26 51 -3 42 9 -4
28 -8 42 -10 14 -1 33 -6 43 -10 12 -5 17 -3 17 8 0 23 30 29 56 12 27 -17 32
-10 10 14 -15 17 -4 19 88 20 15 0 35 6 42 12 8 7 30 9 52 6 20 -2 48 -1 62 3
14 5 36 6 50 3 14 -3 41 -5 60 -5z m270 -322 c0 -8 -4 -18 -10 -21 -5 -3 -10
3 -10 14 0 12 5 21 10 21 6 0 10 -6 10 -14z m-13 -52 c8 -22 -6 -64 -21 -64
-9 0 -15 15 -17 43 -4 38 -2 43 14 39 10 -3 21 -11 24 -18z m53 -58 c0 -3 -4
-8 -10 -11 -5 -3 -10 -1 -10 4 0 6 5 11 10 11 6 0 10 -2 10 -4z m-560 -26 c0
-5 7 -10 15 -10 8 0 15 -4 15 -10 0 -5 -4 -10 -9 -10 -6 0 -13 5 -16 10 -3 6
-15 10 -25 10 -10 0 -22 5 -25 10 -4 6 5 10 19 10 14 0 26 -4 26 -10z m510
-30 c0 -5 -5 -10 -11 -10 -5 0 -7 5 -4 10 3 6 8 10 11 10 2 0 4 -4 4 -10z
m-82 -80 c-17 -17 -32 -29 -34 -27 -6 6 43 57 55 57 5 0 -4 -14 -21 -30z m-58
-180 c0 -12 -12 -26 -30 -35 -35 -18 -38 -8 -9 29 24 31 39 33 39 6z"/>
<path d="M1851 3707 c-29 -29 -1 -36 35 -8 l24 19 -24 0 c-14 0 -29 -5 -35
-11z"/>
<path d="M1414 3679 c-5 -9 21 -19 48 -19 30 0 16 23 -16 25 -15 0 -29 -2 -32
-6z"/>
<path d="M1780 3675 c-11 -11 -45 -15 -128 -17 -61 -2 -112 -6 -112 -9 0 -10
87 -26 136 -24 52 2 139 39 129 55 -8 13 -8 13 -25 -5z"/>
<path d="M2429 4723 c-1 -5 -1 -15 0 -25 1 -9 -3 -19 -9 -23 -8 -5 -8 -11 1
-21 6 -7 9 -20 6 -29 -4 -8 -2 -17 2 -19 9 -6 21 50 21 97 0 23 -18 40 -21 20z"/>
<path d="M2420 4555 c0 -19 5 -35 10 -35 6 0 10 16 10 35 0 19 -4 35 -10 35
-5 0 -10 -16 -10 -35z"/>
<path d="M2546 4449 c-10 -6 -39 -12 -64 -13 -39 -1 -49 -5 -59 -26 -26 -51
-9 -143 40 -212 9 -14 9 -22 -1 -38 -11 -18 -10 -20 13 -20 21 0 29 9 46 48
25 57 21 123 -9 155 -20 21 -21 67 -2 67 10 0 35 -65 44 -114 6 -29 10 -36 17
-25 11 17 12 189 2 189 -5 0 -16 -5 -27 -11z m-71 -89 c3 -5 -3 -10 -15 -10
-12 0 -18 5 -15 10 3 6 10 10 15 10 5 0 12 -4 15 -10z"/>
<path d="M2410 4177 c0 -27 4 -35 14 -31 24 9 26 31 5 50 -18 17 -19 16 -19
-19z"/>
<path d="M2410 4115 c-10 -12 -10 -19 -2 -27 13 -13 42 6 42 28 0 19 -24 18
-40 -1z"/>
<path d="M793 4104 c-3 -9 3 -25 16 -37 l21 -21 0 21 c0 46 -24 71 -37 37z"/>
<path d="M2433 4058 c-27 -13 -32 -65 -8 -75 21 -8 26 -1 35 47 8 43 7 44 -27
28z"/>
<path d="M700 4000 c-12 -7 -12 -13 -4 -27 14 -23 28 -22 32 1 5 24 -10 37
-28 26z"/>
<path d="M2397 3974 c-4 -4 -7 -27 -7 -51 0 -36 3 -43 19 -43 11 0 27 7 36 16
15 15 14 19 -7 43 -12 14 -25 29 -29 34 -3 4 -8 4 -12 1z"/>
<path d="M2324 3632 c-11 -20 -22 -39 -25 -42 -12 -11 -50 -131 -55 -175 -1
-11 -7 -51 -13 -90 -15 -109 -21 -217 -12 -229 4 -6 14 -33 21 -61 13 -51 29
-80 38 -70 3 3 15 -1 27 -9 15 -10 67 -15 185 -17 261 -6 370 12 370 63 0 19
-27 67 -44 80 -5 3 -9 42 -8 85 1 83 -2 92 -31 108 -11 6 -25 28 -32 49 -14
41 -35 64 -85 95 -17 10 -31 21 -31 25 4 32 -1 56 -12 56 -9 0 -19 22 -26 58
-7 31 -15 63 -17 70 -2 7 -20 12 -44 12 -23 0 -50 4 -60 10 -10 5 -43 12 -73
14 -54 5 -55 5 -73 -32z"/>
<path d="M2 3568 c3 -63 3 -63 34 -66 26 -3 33 1 38 22 8 34 -9 69 -45 90
l-30 18 3 -64z"/>
<path d="M806 3575 c-9 -14 -14 -30 -11 -36 4 -5 -1 -31 -9 -57 -17 -51 -21
-188 -4 -158 5 9 6 21 3 26 -4 6 -3 9 2 8 4 -2 32 22 61 52 53 54 53 56 46
100 -5 25 -8 50 -9 55 0 14 -27 34 -46 35 -9 0 -24 -11 -33 -25z"/>
<path d="M880 3340 c1 -25 7 -70 15 -100 l13 -55 3 55 c3 81 -1 113 -17 130
-12 12 -14 8 -14 -30z"/>
<path d="M3410 3032 c0 -5 -32 -16 -71 -25 -58 -14 -82 -15 -139 -6 -38 6 -86
9 -107 7 -34 -3 -38 -6 -41 -32 -2 -16 1 -33 6 -38 6 -6 88 -12 186 -14 l176
-4 0 60 c0 33 -2 60 -5 60 -3 0 -5 -4 -5 -8z"/>
<path d="M2256 2874 c-10 -27 -7 -84 9 -145 17 -67 33 -172 45 -304 4 -49 15
-121 24 -160 14 -60 15 -92 7 -230 -6 -88 -13 -223 -16 -300 -3 -77 -8 -149
-10 -160 -2 -11 0 -27 5 -35 8 -12 12 -11 32 6 28 26 148 75 200 81 53 8 106
-22 221 -122 55 -47 101 -85 104 -85 6 0 -3 110 -17 215 -6 39 -24 185 -40
325 -35 293 -60 429 -96 516 -26 63 -89 138 -136 163 -15 8 -53 38 -85 67 -32
29 -77 61 -99 70 -23 9 -51 28 -62 44 -12 15 -34 37 -51 49 -25 18 -30 19 -35
5z"/>
<path d="M205 2849 c-27 -5 -65 -14 -85 -22 -19 -8 -54 -20 -77 -26 l-43 -12
0 -360 c0 -326 2 -361 16 -355 9 3 28 9 42 12 26 5 26 5 8 -10 -11 -9 -30 -16
-43 -16 l-23 0 0 -575 0 -575 65 0 c51 0 66 4 73 18 23 43 92 264 92 294 0 6
-10 8 -25 4 -26 -7 -35 8 -11 17 13 5 21 33 33 110 3 20 9 37 14 37 5 0 9 7 9
15 0 9 6 18 14 21 9 4 17 27 22 62 3 32 13 64 20 73 8 9 17 45 19 80 3 35 8
71 10 79 2 8 12 76 22 150 38 300 14 834 -44 956 -17 34 -24 36 -108 23z m-55
-1589 c0 -10 -5 -22 -10 -25 -6 -4 -10 5 -8 24 2 32 18 33 18 1z"/>
<path d="M1646 2293 c-24 -13 -36 -13 -61 -4 -17 6 -38 11 -47 11 -17 0 -258
-226 -258 -241 0 -11 61 -92 104 -139 58 -62 58 -65 31 -196 -35 -169 -55
-313 -55 -391 l0 -67 38 50 c40 54 88 111 198 238 98 113 114 138 114 183 1
38 1 38 15 13 8 -14 14 -36 15 -50 0 -32 32 -84 65 -106 27 -17 33 -34 13 -34
-20 1 -51 32 -73 74 l-19 38 -31 -34 c-30 -33 -86 -100 -225 -268 -125 -152
-119 -136 -120 -285 -1 -71 -1 -140 -1 -152 l1 -23 220 0 219 0 43 56 c24 30
56 73 73 95 l29 39 -12 144 c-21 252 -73 441 -144 522 -16 18 -18 35 -16 115
l3 94 44 -3 c43 -4 44 -3 37 22 -4 15 -17 50 -30 79 -13 28 -31 68 -39 89 -19
46 -84 148 -94 148 -5 -1 -21 -8 -37 -17z m-2 -105 c77 -76 112 -124 118 -160
8 -42 -8 -33 -33 19 -12 26 -53 79 -91 119 -63 66 -76 84 -63 84 3 0 34 -28
69 -62z"/>
<path d="M2441 1531 c-6 -10 -30 -23 -55 -30 -50 -12 -65 -30 -58 -67 3 -18
11 -24 31 -24 15 0 62 -19 106 -42 224 -118 256 -131 270 -108 11 17 -14 49
-84 104 -37 30 -98 84 -134 120 -60 60 -67 64 -76 47z"/>
<path d="M2735 1370 c-3 -5 1 -10 10 -10 9 0 13 5 10 10 -3 6 -8 10 -10 10 -2
0 -7 -4 -10 -10z"/>
<path d="M2273 1329 c-6 -8 -13 -38 -15 -68 l-3 -54 54 -29 c30 -16 88 -52
129 -79 79 -52 88 -55 112 -39 13 9 10 14 -15 36 -16 14 -53 41 -81 60 -69 46
-162 139 -166 166 -2 18 -5 19 -15 7z"/>
<path d="M2924 1186 c-47 -48 -47 -60 1 -104 25 -23 45 -45 45 -51 0 -21 -40
-21 -80 -1 l-42 21 -23 -25 c-28 -31 -23 -30 -70 -10 -28 11 -41 12 -49 4 -8
-8 -5 -16 11 -28 12 -9 28 -32 34 -49 l11 -33 154 0 c101 0 154 4 154 10 0 6
-7 24 -15 40 -8 16 -18 65 -21 107 -3 43 -10 93 -15 111 -9 28 -15 32 -42 31
-18 -1 -41 -10 -53 -23z"/>
<path d="M2170 1121 c-5 -11 -10 -32 -10 -48 0 -43 33 -142 50 -149 8 -3 50
-8 93 -11 79 -6 99 4 52 25 -47 22 -118 96 -141 150 -13 28 -26 52 -29 52 -2
0 -9 -9 -15 -19z"/>
<path d="M1872 985 c-29 -35 -52 -67 -52 -70 0 -3 29 -5 65 -5 62 0 65 1 65
24 0 42 -13 116 -20 116 -3 0 -30 -29 -58 -65z"/>
<path d="M2445 950 c3 -5 8 -10 11 -10 2 0 4 5 4 10 0 6 -5 10 -11 10 -5 0 -7
-4 -4 -10z"/>
<path d="M0 761 c0 -35 4 -51 16 -55 27 -10 34 -7 34 17 0 13 7 32 15 43 25
33 18 44 -25 44 l-40 0 0 -49z"/>
<path d="M1346 794 c-11 -29 -6 -44 14 -44 11 0 27 -11 36 -25 22 -34 95 -67
150 -67 25 0 48 3 52 6 3 3 -16 6 -42 6 -51 0 -78 10 -113 43 -41 37 -24 38
23 2 61 -47 94 -47 59 -1 -22 29 -18 43 4 17 16 -19 20 -19 31 -6 18 22 24 11
9 -14 -34 -53 32 -27 99 40 23 23 42 46 42 51 0 4 -81 8 -179 8 -154 0 -180
-2 -185 -16z"/>
<path d="M1698 752 c-50 -61 -56 -89 -7 -34 34 38 44 40 64 9 19 -30 82 -65
120 -67 56 -4 95 0 95 9 0 5 -18 7 -39 4 -52 -7 -83 1 -120 33 -48 40 -36 48
15 9 41 -31 74 -45 74 -30 0 3 -7 17 -16 30 -9 14 -12 25 -6 25 6 0 12 -6 15
-12 3 -10 9 -10 26 0 24 14 26 10 9 -18 -16 -25 -5 -35 22 -20 18 10 21 18 16
42 -3 17 -6 41 -6 54 0 24 -1 24 -107 24 l-108 0 -47 -58z"/>
<path d="M2120 802 c0 -16 65 -79 100 -97 24 -12 30 -13 30 -2 0 7 -5 18 -12
25 -6 6 -8 15 -4 19 4 5 14 -1 22 -12 15 -20 15 -20 30 -1 18 25 32 12 16 -14
-15 -25 -15 -30 2 -30 8 0 28 12 45 26 l31 26 -30 26 c-34 30 -40 32 -147 39
-57 4 -83 2 -83 -5z"/>
<path d="M2633 803 c-16 -6 -17 -39 -2 -48 6 -4 8 -13 5 -21 -3 -8 -1 -14 3
-14 5 0 11 6 14 13 2 6 8 9 12 4 5 -4 3 -13 -3 -19 -7 -7 -12 -18 -12 -25 0
-16 39 -2 81 28 16 11 29 18 29 15 0 -3 -19 -19 -42 -36 -29 -21 -53 -30 -82
-31 -30 0 -36 -3 -21 -8 46 -18 144 20 179 70 12 17 18 19 35 10 12 -7 21 -16
21 -21 0 -5 20 -21 45 -36 77 -45 186 -33 239 25 27 29 2 27 -38 -4 -20 -15
-52 -27 -82 -31 -36 -4 -45 -3 -34 5 12 9 13 14 3 31 -18 28 -16 39 3 15 15
-20 15 -20 34 5 11 14 20 20 20 14 0 -6 -7 -17 -15 -24 -24 -20 -19 -43 8 -34
59 19 104 74 86 107 -9 15 -33 17 -242 16 -128 0 -238 -3 -244 -6z m312 -111
c15 -9 16 -11 4 -12 -8 0 -28 15 -45 32 -23 26 -24 28 -4 12 14 -12 34 -26 45
-32z"/>
<path d="M1694 699 c-10 -12 -36 -30 -56 -40 -21 -11 -38 -23 -38 -28 0 -11
68 2 98 18 15 8 22 21 22 41 0 36 -1 36 -26 9z"/>
<path d="M2830 686 c0 -38 14 -46 113 -65 41 -7 48 -6 45 7 -2 10 -19 19 -43
24 -22 5 -57 22 -77 39 l-38 30 0 -35z"/>
<path d="M1382 683 c4 -33 33 -50 102 -59 55 -8 65 12 11 22 -19 3 -53 20 -76
36 l-40 29 3 -28z"/>
<path d="M1742 683 c2 -19 12 -32 30 -41 37 -17 128 -28 128 -14 0 11 -23 22
-49 22 -9 0 -39 14 -65 30 l-47 30 3 -27z"/>
<path d="M2364 695 c-10 -8 -27 -15 -36 -15 -9 0 -20 -5 -24 -11 -11 -19 48
-1 71 22 23 22 17 25 -11 4z"/>
<path d="M2785 700 c-10 -16 -67 -43 -105 -49 -19 -4 -34 -11 -32 -16 4 -15
82 -10 125 8 29 12 37 22 37 41 0 26 -14 35 -25 16z"/>
<path d="M2415 680 c-10 -11 -28 -20 -40 -20 -13 0 -28 -7 -35 -15 -10 -13 -9
-15 9 -15 40 0 91 28 91 49 0 26 -2 26 -25 1z"/>
<path d="M0 680 c0 -5 5 -10 10 -10 6 0 10 5 10 10 0 6 -4 10 -10 10 -5 0 -10
-4 -10 -10z"/>
<path d="M2472 668 c5 -15 82 -45 125 -50 20 -2 28 1 28 12 0 8 -4 15 -10 16
-49 3 -114 18 -109 25 3 5 -4 9 -16 9 -13 0 -20 -5 -18 -12z"/>
<path d="M3117 674 c-4 -4 -28 -12 -54 -19 -54 -14 -70 -35 -26 -35 42 0 125
30 120 44 -4 13 -30 20 -40 10z"/>
<path d="M1354 635 c-18 -46 -5 -81 24 -64 10 5 33 15 54 22 l36 12 -55 21
c-43 17 -55 19 -59 9z"/>
<path d="M1667 625 l-57 -21 52 -17 c65 -22 62 -22 125 0 l52 18 -57 20 -57
20 -58 -20z"/>
<path d="M1933 643 c-24 -9 -13 -24 15 -21 15 2 26 8 25 13 -2 12 -23 16 -40
8z"/>
<path d="M2410 627 l-44 -20 44 -22 c43 -22 44 -22 84 -4 23 10 50 19 61 19
11 1 2 7 -20 14 -22 7 -49 17 -60 23 -15 8 -31 5 -65 -10z"/>
<path d="M2755 626 l-60 -21 65 -21 c42 -14 69 -19 80 -13 8 5 33 15 55 23
l39 13 -44 15 c-25 9 -52 18 -60 20 -8 3 -42 -4 -75 -16z"/>
<path d="M3090 616 l-45 -12 35 -6 c42 -7 94 -27 88 -33 -2 -2 -26 2 -53 10
-55 17 -105 19 -105 5 0 -5 14 -13 32 -18 25 -6 16 -8 -42 -8 -58 0 -67 2 -42
8 18 5 32 13 32 18 0 15 -61 12 -112 -6 -40 -13 -47 -20 -51 -47 -2 -18 -3
-34 -1 -36 2 -2 19 10 39 28 20 17 41 31 48 30 7 0 1 -8 -13 -17 -13 -9 -33
-27 -44 -39 -26 -30 -47 -29 -77 3 -66 70 -171 79 -255 22 -19 -13 -34 -29
-34 -35 0 -19 14 -16 36 8 59 66 160 65 219 -1 15 -17 9 -15 -26 9 -26 17 -52
31 -58 31 -14 0 -15 -37 -1 -45 6 -3 10 -11 10 -17 0 -5 -8 0 -18 12 l-19 23
-16 -24 c-10 -13 -17 -19 -17 -13 0 6 7 19 15 30 22 29 18 37 -12 29 -29 -7
-93 -61 -93 -78 0 -6 16 -29 35 -53 35 -42 35 -44 20 -74 -9 -16 -27 -33 -41
-36 -14 -4 -30 -17 -35 -31 -12 -33 -11 -236 1 -205 13 32 27 27 41 -13 12
-33 15 -35 60 -35 l47 0 0 88 c0 48 -7 115 -15 150 -9 34 -13 65 -10 68 10 11
45 -16 66 -51 11 -19 25 -35 30 -35 5 0 7 -8 4 -19 -5 -19 29 -95 47 -106 6
-4 22 5 35 19 13 14 28 26 33 26 21 0 33 -31 31 -75 -2 -32 1 -49 11 -55 8 -6
61 -10 117 -10 96 0 105 2 155 31 65 38 111 74 206 157 l72 64 -1 61 c0 34 -6
80 -12 101 l-12 40 -20 -45 c-28 -63 -44 -73 -73 -46 -26 27 -66 124 -53 132
13 7 1 45 -14 45 -14 0 -46 44 -49 69 -3 20 -38 23 -96 7z m48 -102 c30 -30
31 -32 6 -13 -17 13 -40 29 -50 36 -11 7 -13 12 -6 12 7 1 29 -15 50 -35z
m-55 0 c14 -10 29 -26 32 -34 4 -9 -3 -6 -17 6 -54 49 -104 55 -74 8 23 -33
19 -44 -4 -14 l-20 25 -20 -25 c-11 -14 -20 -20 -20 -14 0 6 7 17 15 24 17 14
20 40 4 40 -16 0 -51 -20 -77 -44 -16 -14 -21 -16 -17 -5 3 9 23 25 43 38 45
26 115 24 155 -5z"/>
<path d="M2648 603 c7 -3 16 -2 19 1 4 3 -2 6 -13 5 -11 0 -14 -3 -6 -6z"/>
<path d="M2570 588 c-78 -14 -100 -27 -100 -60 l0 -29 33 25 c17 13 53 30 80
36 43 11 58 23 40 33 -5 2 -28 0 -53 -5z"/>
<path d="M1432 577 c-36 -13 -52 -32 -52 -60 0 -14 6 -12 41 12 22 16 53 33
70 36 16 4 27 11 23 16 -7 12 -41 10 -82 -4z"/>
<path d="M1566 582 c-4 -7 10 -16 36 -22 24 -7 57 -23 75 -36 40 -30 43 -30
43 1 0 17 -9 29 -30 40 -39 20 -115 31 -124 17z"/>
<path d="M1795 578 c-43 -15 -55 -27 -55 -54 0 -31 5 -30 45 5 19 16 51 32 74
36 23 4 41 11 41 16 0 12 -67 10 -105 -3z"/>
<path d="M1920 581 c0 -8 33 -21 57 -21 7 0 10 7 7 15 -6 16 -64 21 -64 6z"/>
<path d="M2652 578 c3 -7 22 -16 43 -20 21 -5 53 -20 71 -33 41 -31 44 -31 44
0 0 21 -9 30 -42 45 -49 22 -122 27 -116 8z"/>
<path d="M1860 551 c-47 -14 -90 -41 -106 -66 -21 -31 -29 -31 -57 1 -28 33
-89 64 -124 64 -27 -1 -26 -2 8 -14 42 -15 99 -53 99 -67 0 -15 -16 -10 -36
12 -17 19 -65 49 -79 49 -11 0 -4 -24 12 -42 18 -20 5 -26 -15 -6 -9 9 -16 7
-32 -7 -17 -16 -20 -16 -20 -2 0 9 5 19 10 22 12 8 13 25 1 25 -8 0 -70 -76
-146 -178 -18 -25 -20 -40 -17 -184 l3 -158 218 0 217 0 53 75 c28 41 55 75
60 75 4 0 29 30 56 66 l48 66 -6 101 c-7 107 -16 127 -64 142 -28 8 -31 -10
-6 -37 9 -10 13 -21 9 -25 -3 -4 -13 3 -22 15 l-15 22 -19 -22 c-23 -27 -27
-12 -5 19 9 13 11 24 5 28 -13 8 -66 -21 -84 -47 -9 -12 -19 -19 -22 -15 -10
9 25 46 60 64 29 15 93 14 129 -1 10 -5 17 -4 17 2 0 19 -91 34 -130 23z"/>
<path d="M1416 500 c-24 -22 -48 -40 -55 -40 -6 0 -11 -18 -11 -45 0 -25 3
-45 8 -45 14 0 64 71 58 85 -3 8 12 29 35 49 23 22 33 36 24 36 -9 0 -35 -18
-59 -40z"/>
<path d="M1964 184 c-28 -33 -69 -87 -93 -121 l-42 -63 107 0 106 0 -7 52 c-4
28 -10 83 -14 121 l-6 69 -51 -58z"/>
</g>
</svg>
